<?xml version="1.0"?>
<svg width="256" height="256" xmlns="http://www.w3.org/2000/svg" xmlns:svg="http://www.w3.org/2000/svg" preserveAspectRatio="xMidYMid" version="1.1">
 <g class="layer">
  <title>Layer 1</title>
  <g id="svg_1">
   <path d="m119.62,0.07c-0.55,0.05 -2.31,0.22 -3.88,0.35c-36.36,3.28 -70.42,22.89 -91.99,53.04c-12.01,16.77 -19.7,35.78 -22.6,55.92c-1.02,7.04 -1.15,9.11 -1.15,18.65c0,9.53 0.13,11.6 1.15,18.64c6.96,48.06 41.17,88.44 87.56,103.41c8.31,2.67 17.07,4.5 27.03,5.6c3.88,0.43 20.64,0.43 24.52,0c17.19,-1.9 31.76,-6.15 46.12,-13.49c2.2,-1.12 2.63,-1.42 2.33,-1.67c-0.2,-0.15 -9.59,-12.74 -20.85,-27.95l-20.47,-27.65l-25.65,-37.95c-14.11,-20.87 -25.72,-37.94 -25.82,-37.94c-0.1,-0.02 -0.2,16.84 -0.25,37.44c-0.08,36.05 -0.1,37.5 -0.55,38.35c-0.65,1.23 -1.15,1.73 -2.2,2.28c-0.81,0.4 -1.51,0.47 -5.28,0.47l-4.33,0l-1.15,-0.72c-0.76,-0.48 -1.31,-1.1 -1.68,-1.83l-0.53,-1.12l0.05,-50.17l0.08,-50.19l0.77,-0.98c0.4,-0.52 1.26,-1.2 1.86,-1.52c1.02,-0.5 1.42,-0.55 5.75,-0.55c5.11,0 5.96,0.2 7.28,1.65c0.38,0.4 14.27,21.31 30.88,46.51c16.62,25.2 39.34,59.6 50.5,76.49l20.27,30.7l1.03,-0.68c9.08,-5.9 18.69,-14.31 26.3,-23.07c16.19,-18.59 26.63,-41.25 30.13,-65.42c1.02,-7.04 1.15,-9.11 1.15,-18.64c0,-9.54 -0.13,-11.61 -1.15,-18.65c-6.96,-48.06 -41.17,-88.44 -87.56,-103.41c-8.18,-2.65 -16.89,-4.47 -26.65,-5.58c-2.41,-0.25 -18.95,-0.52 -21.02,-0.32l0,0zm52.4,77.41c1.2,0.6 2.18,1.75 2.53,2.96c0.2,0.65 0.25,14.56 0.2,45.91l-0.08,44.99l-7.93,-12.16l-7.96,-12.16l0,-32.71c0,-21.14 0.1,-33.02 0.25,-33.6c0.4,-1.4 1.28,-2.5 2.48,-3.15c1.02,-0.53 1.4,-0.58 5.33,-0.58c3.7,0 4.35,0.05 5.18,0.5z" fill="#ffffff" id="svg_2"/>
  </g>
 </g>
</svg>